<svg width="45" height="50" viewBox="0 0 45 50" fill="none" xmlns="http://www.w3.org/2000/svg">
    <g clip-path="url(#clip0_204_1133)">
        <path d="M9.43164 0V7.57143L34.2716 25L9.43164 42.4286V50L44.9996 25L9.43164 0Z" fill="#E0BEA2"/>
        <path d="M0 7.35718V42.5715L25.056 25L0 7.35718Z" fill="#E0BEA2"/>
        <path d="M6.49277 29C5.93368 28.9927 5.43797 28.868 5.00561 28.6259C4.57325 28.3838 4.21172 28.0646 3.92099 27.6685C3.63027 27.2724 3.41037 26.8469 3.26128 26.392C3.11964 25.9298 3.04883 25.4787 3.04883 25.0385C3.04883 24.569 3.1271 24.0995 3.28364 23.63C3.44018 23.1605 3.66754 22.735 3.96572 22.3535C4.27135 21.9647 4.63662 21.6566 5.06152 21.4292C5.48642 21.1944 5.9635 21.077 6.49277 21.077C7.06675 21.077 7.5662 21.2017 7.9911 21.4512C8.42346 21.7006 8.785 22.0234 9.07572 22.4195C9.36644 22.8157 9.58262 23.2448 9.72425 23.707C9.87334 24.1692 9.94788 24.613 9.94788 25.0385C9.94788 25.5154 9.86961 25.9885 9.71307 26.458C9.55653 26.9202 9.32544 27.342 9.01981 27.7235C8.72163 28.105 8.36009 28.4131 7.93519 28.6479C7.51029 28.8753 7.02948 28.9927 6.49277 29ZM4.60307 25.0385C4.61053 25.3466 4.65153 25.6547 4.72607 25.9629C4.80807 26.2636 4.92361 26.5424 5.0727 26.7992C5.22924 27.0559 5.42678 27.265 5.66533 27.4264C5.90387 27.5805 6.17968 27.6575 6.49277 27.6575C6.82821 27.6575 7.11521 27.5731 7.35375 27.4044C7.59229 27.2357 7.78611 27.0193 7.93519 26.7552C8.09174 26.4911 8.20728 26.2086 8.28182 25.9078C8.35637 25.6071 8.39364 25.3173 8.39364 25.0385C8.39364 24.7304 8.35264 24.426 8.27064 24.1252C8.1961 23.8171 8.07683 23.5346 7.91283 23.2779C7.75629 23.0211 7.55875 22.8157 7.3202 22.6616C7.08912 22.5002 6.8133 22.4195 6.49277 22.4195C6.16477 22.4195 5.8815 22.5039 5.64296 22.6726C5.40442 22.8414 5.20688 23.0578 5.05034 23.3219C4.90125 23.586 4.78943 23.8684 4.71489 24.1692C4.64034 24.47 4.60307 24.7597 4.60307 25.0385Z" fill="white"/>
        <path d="M15.6524 27.5585V28.89H11.1574V27.5585H12.7005V22.4746C12.6408 22.5626 12.5402 22.6616 12.3986 22.7717C12.2644 22.8744 12.1079 22.9771 11.929 23.0798C11.7575 23.1751 11.5786 23.2558 11.3922 23.3219C11.2133 23.3879 11.0493 23.4209 10.9002 23.4209V22.0564C11.1015 22.0564 11.3065 22.005 11.5152 21.9023C11.724 21.7996 11.9178 21.6823 12.0967 21.5502C12.2756 21.4182 12.4172 21.2971 12.5216 21.1871C12.6334 21.0697 12.693 21.0073 12.7005 21H14.2324V27.5585H15.6524Z" fill="white"/>
    </g>
    <defs>
        <clipPath id="clip0_204_1133">
            <rect width="45" height="50" fill="white"/>
        </clipPath>
    </defs>
</svg>