<svg width="45" height="50" fill="none" xmlns="http://www.w3.org/2000/svg"><g clip-path="url(#a)"><path d="M9.432 0v7.571L34.272 25 9.432 42.429V50L45 25 9.432 0Z" fill="#E0BEA2"/><path d="M0 7.357v35.215L25.056 25 0 7.357Z" fill="#E0BEA2"/><path d="M6.493 29c-.56-.007-1.055-.132-1.487-.374a3.374 3.374 0 0 1-1.085-.957 4.532 4.532 0 0 1-.66-1.277 4.606 4.606 0 0 1-.212-1.354c0-.469.078-.939.235-1.408.156-.47.384-.895.682-1.276.305-.39.67-.697 1.096-.925a2.909 2.909 0 0 1 1.43-.352c.575 0 1.074.125 1.5.374.431.25.793.572 1.084.968a4.3 4.3 0 0 1 .648 1.288c.15.462.224.906.224 1.331 0 .477-.078.95-.235 1.42a4.126 4.126 0 0 1-.693 1.266c-.298.381-.66.69-1.085.924A3.1 3.1 0 0 1 6.493 29Zm-1.89-3.962c.008.309.049.617.123.925.082.3.198.58.347.836.156.257.354.466.592.627.239.155.515.232.828.232.335 0 .622-.085.86-.254.24-.168.433-.385.582-.649.157-.264.272-.546.347-.847a3.458 3.458 0 0 0-.011-1.783 2.772 2.772 0 0 0-.358-.847 1.894 1.894 0 0 0-.593-.616 1.408 1.408 0 0 0-.827-.242 1.43 1.43 0 0 0-.85.253 2.087 2.087 0 0 0-.593.649 3.61 3.61 0 0 0-.447 1.717Zm11.049 2.52v1.332h-4.495v-1.332H12.7v-5.083a1.43 1.43 0 0 1-.301.297 4.514 4.514 0 0 1-.47.308 3.51 3.51 0 0 1-.537.242 1.433 1.433 0 0 1-.492.099v-1.365c.201 0 .406-.051.615-.154A3.798 3.798 0 0 0 12.7 21h1.532v6.558h1.42Z" fill="#fff"/></g><defs><clipPath id="a"><path fill="#fff" d="M0 0h45v50H0z"/></clipPath></defs></svg>