<svg width="19" height="19" fill="none" xmlns="http://www.w3.org/2000/svg"><g clip-path="url(#a)"><path d="M9.5 15.833a6.333 6.333 0 1 0 0-12.666 6.333 6.333 0 0 0 0 12.666Zm0 1.584a7.917 7.917 0 1 1 0-15.833 7.917 7.917 0 0 1 0 15.833Zm-2.462-6.99L5.06 9.81c-.427-.131-.43-.426.096-.637l7.706-2.977c.447-.182.7.049.555.626l-1.312 6.19c-.091.442-.357.547-.725.343l-2.02-1.494-.94.909c-.097.093-.175.173-.324.193-.148.02-.27-.024-.36-.27l-.688-2.272-.01.005Z" fill="#E0BEA2"/></g><defs><clipPath id="a"><path fill="#fff" d="M0 0h19v19H0z"/></clipPath></defs></svg>